<mxfile host="app.diagrams.net" modified="2023-02-24T04:08:55.186Z" agent="5.0 (Windows NT 10.0; Win64; x64) AppleWebKit/537.36 (KHTML, like Gecko) Chrome/110.0.0.0 Safari/537.36" etag="rbzR8Ni0Ja_M74f7P_ou" version="20.8.23" type="github">
  <diagram name="Page-1" id="Vz5kV5Koc8dBTyyTWOG0">
    <mxGraphModel dx="880" dy="387" grid="1" gridSize="10" guides="1" tooltips="1" connect="1" arrows="1" fold="1" page="1" pageScale="1" pageWidth="850" pageHeight="1100" math="0" shadow="0">
      <root>
        <mxCell id="0" />
        <mxCell id="1" parent="0" />
        <mxCell id="wo3jyWPmGM6vL8JAsNU_-1" value="Data Barang" style="swimlane;childLayout=stackLayout;resizeParent=1;resizeParentMax=0;startSize=20;html=1;" parent="1" vertex="1">
          <mxGeometry x="220.00000000000045" y="60" width="410" height="570" as="geometry" />
        </mxCell>
        <mxCell id="wo3jyWPmGM6vL8JAsNU_-2" value="Admin" style="swimlane;startSize=20;html=1;" parent="wo3jyWPmGM6vL8JAsNU_-1" vertex="1">
          <mxGeometry y="20" width="210" height="550" as="geometry" />
        </mxCell>
        <mxCell id="wo3jyWPmGM6vL8JAsNU_-5" value="" style="ellipse;html=1;shape=startState;fillColor=#000000;strokeColor=#ff0000;" parent="wo3jyWPmGM6vL8JAsNU_-2" vertex="1">
          <mxGeometry x="89.99999999999955" y="20" width="30" height="30" as="geometry" />
        </mxCell>
        <mxCell id="wo3jyWPmGM6vL8JAsNU_-6" value="" style="edgeStyle=orthogonalEdgeStyle;html=1;verticalAlign=bottom;endArrow=open;endSize=8;strokeColor=#ff0000;rounded=0;" parent="wo3jyWPmGM6vL8JAsNU_-2" source="wo3jyWPmGM6vL8JAsNU_-5" edge="1">
          <mxGeometry relative="1" as="geometry">
            <mxPoint x="104.99999999999955" y="80" as="targetPoint" />
          </mxGeometry>
        </mxCell>
        <mxCell id="wo3jyWPmGM6vL8JAsNU_-7" value="mengisi form login" style="rounded=1;whiteSpace=wrap;html=1;arcSize=40;fontColor=#000000;fillColor=#ffffc0;strokeColor=#ff0000;" parent="wo3jyWPmGM6vL8JAsNU_-2" vertex="1">
          <mxGeometry x="47.5" y="80" width="115" height="30" as="geometry" />
        </mxCell>
        <mxCell id="wo3jyWPmGM6vL8JAsNU_-8" value="" style="edgeStyle=orthogonalEdgeStyle;html=1;verticalAlign=bottom;endArrow=open;endSize=8;strokeColor=#FF0000;rounded=0;entryX=0.5;entryY=0;entryDx=0;entryDy=0;" parent="wo3jyWPmGM6vL8JAsNU_-2" source="wo3jyWPmGM6vL8JAsNU_-7" target="wo3jyWPmGM6vL8JAsNU_-19" edge="1">
          <mxGeometry relative="1" as="geometry">
            <mxPoint x="104.99999999999955" y="145" as="targetPoint" />
          </mxGeometry>
        </mxCell>
        <mxCell id="wo3jyWPmGM6vL8JAsNU_-23" style="edgeStyle=elbowEdgeStyle;rounded=0;orthogonalLoop=1;jettySize=auto;html=1;exitX=0.5;exitY=1;exitDx=0;exitDy=0;strokeColor=#FF0000;" parent="wo3jyWPmGM6vL8JAsNU_-2" source="wo3jyWPmGM6vL8JAsNU_-19" target="wo3jyWPmGM6vL8JAsNU_-22" edge="1">
          <mxGeometry relative="1" as="geometry" />
        </mxCell>
        <mxCell id="wo3jyWPmGM6vL8JAsNU_-19" value="tampil dashboard" style="rounded=1;whiteSpace=wrap;html=1;arcSize=40;fontColor=#000000;fillColor=#ffffc0;strokeColor=#ff0000;" parent="wo3jyWPmGM6vL8JAsNU_-2" vertex="1">
          <mxGeometry x="47.5" y="145" width="115" height="30" as="geometry" />
        </mxCell>
        <mxCell id="wo3jyWPmGM6vL8JAsNU_-25" style="edgeStyle=elbowEdgeStyle;rounded=0;orthogonalLoop=1;jettySize=auto;html=1;exitX=0.5;exitY=1;exitDx=0;exitDy=0;entryX=0.5;entryY=0;entryDx=0;entryDy=0;strokeColor=#FF0000;" parent="wo3jyWPmGM6vL8JAsNU_-2" source="wo3jyWPmGM6vL8JAsNU_-22" target="wo3jyWPmGM6vL8JAsNU_-24" edge="1">
          <mxGeometry relative="1" as="geometry" />
        </mxCell>
        <mxCell id="wo3jyWPmGM6vL8JAsNU_-22" value="masuk menu data admin" style="rounded=1;whiteSpace=wrap;html=1;arcSize=40;fontColor=#000000;fillColor=#ffffc0;strokeColor=#ff0000;" parent="wo3jyWPmGM6vL8JAsNU_-2" vertex="1">
          <mxGeometry x="47.5" y="200" width="115" height="30" as="geometry" />
        </mxCell>
        <mxCell id="wo3jyWPmGM6vL8JAsNU_-24" value="mengelola data admin" style="rounded=1;whiteSpace=wrap;html=1;arcSize=40;fontColor=#000000;fillColor=#ffffc0;strokeColor=#ff0000;" parent="wo3jyWPmGM6vL8JAsNU_-2" vertex="1">
          <mxGeometry x="47.5" y="270" width="115" height="30" as="geometry" />
        </mxCell>
        <mxCell id="wo3jyWPmGM6vL8JAsNU_-38" style="edgeStyle=elbowEdgeStyle;rounded=0;orthogonalLoop=1;jettySize=auto;html=1;exitX=0.5;exitY=1;exitDx=0;exitDy=0;entryX=0.5;entryY=0;entryDx=0;entryDy=0;strokeColor=#FF0000;" parent="wo3jyWPmGM6vL8JAsNU_-2" source="wo3jyWPmGM6vL8JAsNU_-35" target="wo3jyWPmGM6vL8JAsNU_-37" edge="1">
          <mxGeometry relative="1" as="geometry" />
        </mxCell>
        <mxCell id="wo3jyWPmGM6vL8JAsNU_-35" value="tampil data admin" style="rounded=1;whiteSpace=wrap;html=1;arcSize=40;fontColor=#000000;fillColor=#ffffc0;strokeColor=#ff0000;" parent="wo3jyWPmGM6vL8JAsNU_-2" vertex="1">
          <mxGeometry x="47.5" y="370" width="115" height="30" as="geometry" />
        </mxCell>
        <mxCell id="wo3jyWPmGM6vL8JAsNU_-37" value="" style="ellipse;html=1;shape=endState;fillColor=#000000;strokeColor=#ff0000;" parent="wo3jyWPmGM6vL8JAsNU_-2" vertex="1">
          <mxGeometry x="89.99999999999955" y="440" width="30" height="30" as="geometry" />
        </mxCell>
        <mxCell id="wo3jyWPmGM6vL8JAsNU_-15" style="rounded=0;orthogonalLoop=1;jettySize=auto;html=1;exitX=1;exitY=0.5;exitDx=0;exitDy=0;entryX=0;entryY=0.5;entryDx=0;entryDy=0;strokeColor=#FF0000;" parent="wo3jyWPmGM6vL8JAsNU_-1" source="wo3jyWPmGM6vL8JAsNU_-7" target="wo3jyWPmGM6vL8JAsNU_-14" edge="1">
          <mxGeometry relative="1" as="geometry">
            <mxPoint x="219.99999999999955" y="60" as="targetPoint" />
          </mxGeometry>
        </mxCell>
        <mxCell id="wo3jyWPmGM6vL8JAsNU_-20" style="edgeStyle=elbowEdgeStyle;rounded=0;orthogonalLoop=1;jettySize=auto;html=1;exitX=0;exitY=0.5;exitDx=0;exitDy=0;entryX=1;entryY=0.5;entryDx=0;entryDy=0;strokeColor=#FF0000;" parent="wo3jyWPmGM6vL8JAsNU_-1" source="wo3jyWPmGM6vL8JAsNU_-9" target="wo3jyWPmGM6vL8JAsNU_-19" edge="1">
          <mxGeometry relative="1" as="geometry" />
        </mxCell>
        <mxCell id="wo3jyWPmGM6vL8JAsNU_-21" value="Iya" style="edgeLabel;html=1;align=center;verticalAlign=middle;resizable=0;points=[];" parent="wo3jyWPmGM6vL8JAsNU_-20" vertex="1" connectable="0">
          <mxGeometry x="-0.4" y="4" relative="1" as="geometry">
            <mxPoint x="-9" y="-14" as="offset" />
          </mxGeometry>
        </mxCell>
        <mxCell id="wo3jyWPmGM6vL8JAsNU_-3" value="Sistem" style="swimlane;startSize=20;html=1;" parent="wo3jyWPmGM6vL8JAsNU_-1" vertex="1">
          <mxGeometry x="210" y="20" width="200" height="550" as="geometry" />
        </mxCell>
        <mxCell id="wo3jyWPmGM6vL8JAsNU_-9" value="benar?" style="rhombus;whiteSpace=wrap;html=1;fontColor=#000000;fillColor=#ffffc0;strokeColor=#ff0000;" parent="wo3jyWPmGM6vL8JAsNU_-3" vertex="1">
          <mxGeometry x="47.499999999999545" y="140" width="80" height="40" as="geometry" />
        </mxCell>
        <mxCell id="wo3jyWPmGM6vL8JAsNU_-18" style="edgeStyle=elbowEdgeStyle;rounded=0;orthogonalLoop=1;jettySize=auto;html=1;exitX=0.5;exitY=1;exitDx=0;exitDy=0;entryX=0.5;entryY=0;entryDx=0;entryDy=0;strokeColor=#FF0000;" parent="wo3jyWPmGM6vL8JAsNU_-3" source="wo3jyWPmGM6vL8JAsNU_-14" target="wo3jyWPmGM6vL8JAsNU_-9" edge="1">
          <mxGeometry relative="1" as="geometry" />
        </mxCell>
        <mxCell id="wo3jyWPmGM6vL8JAsNU_-14" value="verifikasi login" style="rounded=1;whiteSpace=wrap;html=1;arcSize=40;fontColor=#000000;fillColor=#ffffc0;strokeColor=#ff0000;" parent="wo3jyWPmGM6vL8JAsNU_-3" vertex="1">
          <mxGeometry x="30" y="80" width="115" height="30" as="geometry" />
        </mxCell>
        <mxCell id="wo3jyWPmGM6vL8JAsNU_-28" value="data lengkap?" style="rhombus;whiteSpace=wrap;html=1;fontColor=#000000;fillColor=#ffffc0;strokeColor=#ff0000;" parent="wo3jyWPmGM6vL8JAsNU_-3" vertex="1">
          <mxGeometry x="50" y="270" width="100" height="60" as="geometry" />
        </mxCell>
        <mxCell id="wo3jyWPmGM6vL8JAsNU_-30" value="iya" style="edgeStyle=orthogonalEdgeStyle;html=1;align=left;verticalAlign=top;endArrow=open;endSize=8;strokeColor=#ff0000;rounded=0;" parent="wo3jyWPmGM6vL8JAsNU_-3" source="wo3jyWPmGM6vL8JAsNU_-28" edge="1">
          <mxGeometry x="-1" relative="1" as="geometry">
            <mxPoint x="99.99999999999955" y="370" as="targetPoint" />
          </mxGeometry>
        </mxCell>
        <mxCell id="wo3jyWPmGM6vL8JAsNU_-26" value="verifikasi data baru" style="rounded=1;whiteSpace=wrap;html=1;arcSize=40;fontColor=#000000;fillColor=#ffffc0;strokeColor=#ff0000;" parent="wo3jyWPmGM6vL8JAsNU_-3" vertex="1">
          <mxGeometry x="42.5" y="230" width="115" height="30" as="geometry" />
        </mxCell>
        <mxCell id="wo3jyWPmGM6vL8JAsNU_-34" value="prosen simpan data baru" style="rounded=1;whiteSpace=wrap;html=1;arcSize=40;fontColor=#000000;fillColor=#ffffc0;strokeColor=#ff0000;" parent="wo3jyWPmGM6vL8JAsNU_-3" vertex="1">
          <mxGeometry x="42.5" y="370" width="115" height="30" as="geometry" />
        </mxCell>
        <mxCell id="wo3jyWPmGM6vL8JAsNU_-33" style="edgeStyle=elbowEdgeStyle;rounded=0;orthogonalLoop=1;jettySize=auto;html=1;exitX=1;exitY=0.5;exitDx=0;exitDy=0;entryX=0;entryY=0.5;entryDx=0;entryDy=0;strokeColor=#FF0000;" parent="wo3jyWPmGM6vL8JAsNU_-1" source="wo3jyWPmGM6vL8JAsNU_-24" target="wo3jyWPmGM6vL8JAsNU_-26" edge="1">
          <mxGeometry relative="1" as="geometry">
            <Array as="points">
              <mxPoint x="200" y="270" />
            </Array>
          </mxGeometry>
        </mxCell>
        <mxCell id="wo3jyWPmGM6vL8JAsNU_-29" value="tidak" style="edgeStyle=elbowEdgeStyle;html=1;align=left;verticalAlign=bottom;endArrow=open;endSize=8;strokeColor=#ff0000;rounded=0;exitX=1;exitY=0.5;exitDx=0;exitDy=0;entryX=1;entryY=0.5;entryDx=0;entryDy=0;" parent="wo3jyWPmGM6vL8JAsNU_-1" source="wo3jyWPmGM6vL8JAsNU_-28" target="wo3jyWPmGM6vL8JAsNU_-22" edge="1">
          <mxGeometry x="0.0853" y="5" relative="1" as="geometry">
            <mxPoint x="259.99999999999955" y="230" as="targetPoint" />
            <Array as="points">
              <mxPoint x="380" y="270" />
            </Array>
            <mxPoint as="offset" />
          </mxGeometry>
        </mxCell>
        <mxCell id="wo3jyWPmGM6vL8JAsNU_-36" style="edgeStyle=elbowEdgeStyle;rounded=0;orthogonalLoop=1;jettySize=auto;html=1;exitX=0;exitY=0.5;exitDx=0;exitDy=0;entryX=1;entryY=0.5;entryDx=0;entryDy=0;strokeColor=#FF0000;" parent="wo3jyWPmGM6vL8JAsNU_-1" source="wo3jyWPmGM6vL8JAsNU_-34" target="wo3jyWPmGM6vL8JAsNU_-35" edge="1">
          <mxGeometry relative="1" as="geometry" />
        </mxCell>
        <mxCell id="wo3jyWPmGM6vL8JAsNU_-16" value="tidak" style="endArrow=none;html=1;rounded=0;strokeColor=#FF0000;edgeStyle=elbowEdgeStyle;entryX=1;entryY=0.5;entryDx=0;entryDy=0;" parent="1" target="wo3jyWPmGM6vL8JAsNU_-9" edge="1">
          <mxGeometry relative="1" as="geometry">
            <mxPoint x="330" y="140" as="sourcePoint" />
            <mxPoint x="610" y="240" as="targetPoint" />
            <Array as="points">
              <mxPoint x="610" y="180" />
            </Array>
          </mxGeometry>
        </mxCell>
      </root>
    </mxGraphModel>
  </diagram>
</mxfile>
